<svg xmlns="http://www.w3.org/2000/svg" xmlns:xlink="http://www.w3.org/1999/xlink" width="1677" height="1677" viewBox="0 0 1677 1677">
  <defs>
    <clipPath id="clip-App_Icon_Like_Delivery_1">
      <rect width="1677" height="1677"/>
    </clipPath>
  </defs>
  <g id="App_Icon_Like_Delivery_1" data-name="App Icon Like Delivery – 1" clip-path="url(#clip-App_Icon_Like_Delivery_1)">
    <g id="Group_3857" data-name="Group 3857">
      <g id="Group_3854" data-name="Group 3854">
        <g id="app_icon">
          <rect id="Rectangle_1704" data-name="Rectangle 1704" width="1677" height="1677" rx="158" fill="#fedf3d"/>
        </g>
      </g>
      <g id="Group_3884" data-name="Group 3884" transform="translate(216.175 401.235)">
        <path id="Path_4985" data-name="Path 4985" d="M1273.5,547.264a5.348,5.348,0,0,0,5.347-5.348h0a5.348,5.348,0,0,0-5.347-5.347" transform="translate(-957.967 40.113)" fill="#262930"/>
        <g id="Group_3878" data-name="Group 3878" transform="translate(98.22)">
          <path id="Path_4986" data-name="Path 4986" d="M1307.328,520.487a5.346,5.346,0,0,0,5.345-5.346h0a5.346,5.346,0,0,0-5.345-5.347" transform="translate(-1020.516 11.882)" fill="#262930"/>
          <path id="Path_4987" data-name="Path 4987" d="M1302.418,502.946a5.347,5.347,0,0,0,5.348-5.347h0a5.346,5.346,0,0,0-5.348-5.346" transform="translate(-1025.694 -6.613)" fill="#262930"/>
          <path id="Path_4988" data-name="Path 4988" d="M1537.506,537.971c-.09-15.763,13.327-29.248,29.452-29.6,11.683-.257,20.675,8.121,20.923,19.494.325,14.865-15.435,30.54-30.6,30.444C1545.234,558.23,1537.578,550.353,1537.506,537.971Z" transform="translate(-777.822 10.374)" fill="#201e1f"/>
          <path id="Path_4989" data-name="Path 4989" d="M1336.874,342.812q-15.075-1.556-30.15-3.11l30.15-3.32Z" transform="translate(-1021.153 -170.96)" fill="#f1f2f2"/>
          <path id="Path_4990" data-name="Path 4990" d="M1335.087,333.877q-15.075-1.556-30.148-3.11l30.148-3.32Z" transform="translate(-1023.035 -180.381)" fill="#f1f2f2"/>
          <g id="Group_3876" data-name="Group 3876">
            <path id="Path_4991" data-name="Path 4991" d="M1515.42,316.906c2.288-10.562,1.6-18.3-2.35-23.488-5.811-7.642-17-8.047-21.362-8.205-22.344-.805-76.542-4.826-150-10.1a80.749,80.749,0,0,0-11.825-.144c-6.962.427-11.062.729-14.465,3.441-3.259,2.6-4.244,6.194-5.294,9.331-3.716,11.1-6.7,20.357-8.961,27.49q101.83,4.97,203.022,10.009C1510.67,325.572,1513.844,324.183,1515.42,316.906Z" transform="translate(-1027.022 -235.872)" fill="#201e1f"/>
            <path id="Path_4992" data-name="Path 4992" d="M1511.825,325.39c19.94-.655,39.9-.651,59.848-.9v.045q2.564-.034,5.13-.064,27.783-.33,55.569-.639c4.783-.045,8.8-1.506,8.983-7.367.2-6.18-3.48-8.394-8.883-8.55a45.323,45.323,0,0,1-9.23-1.621c-15.174-3.692-23.268-16.143-31.405-28.919-12.082-18.968-37.6-26.693-57.01-17.9a54.851,54.851,0,0,0-31.67,57.861C1504.053,323.291,1505.885,325.585,1511.825,325.39Z" transform="translate(-814.668 -255.86)" fill="#201e1f"/>
            <path id="Path_4993" data-name="Path 4993" d="M1505.809,293.97c-1.269,2.33.649,4.713,1.865,6.644,10.356,16.433,24.637,25.084,43.247,24.533,18.249-.541,31.97-9.46,41.547-26.2,3.417-5.972,1.629-7.27-4.048-7.135-15.4.364-30.816.442-46.224.635v.164c-10.27.128-20.542.24-30.812.4C1509.456,293.037,1506.875,292.01,1505.809,293.97Z" transform="translate(-811.683 -217.962)" fill="#201e1f"/>
            <path id="Path_4994" data-name="Path 4994" d="M2054.335,685.746c-6.8-14.025-16.445-25.261-29.68-33.5-16.33-10.163-34.46-13.818-55.215-14.3,14.336-16.474,14.073-34.427,11.511-52.995-6.021-43.631-23.777-83.143-42.421-122.361-7.669-16.131-7.732-15.708,10.274-16.264,12.653-.39,26.343,4.641,35.752-10.911,6.838-11.3,11.2-22.372,12.329-35.337.791-9.037-6.287-15.9-5.552-24.679-6.319-.255-12.657-.3-18.956-.807-16.889-1.368-29.509,4.7-36.909,20.429-1.912,4.068-4.9,8.17-8.9,9.3-12.582,3.548-22.492,11.794-33.532,17.99-5.978-1.516-13.841-3.724-19.674-6.377-4.905-2.229-7.356-3.344-8.584-5.154-1.8-2.654-3.922-8.725,15.447-49.27,2.713-5.683,6.6-13.6,6.8-24.48.094-5.171.015-8.68-1.379-12.148-6.855-17.062-46.581-15.564-69.213-11.928a163.738,163.738,0,0,0-78.792,34.3,185.345,185.345,0,0,0-56.185,74.948c-6.81,17.52-18.2,46.809-6.905,59.875q-25.1-1.122-50.2-2.26c-2.471-.113-7.8.883-7-1.831.739-2.5-.117-4.918-.148-8.374-.045-5.084,1.418-16.645,1.718-18.985q4.518-20.443,9.037-40.884c7.165-33.79,14.333-67.581,21.692-102.271-67.511-2.6-134.346-4.978-201.153-8.008-3.187-.144-5.07.5-6.233,1.611-2.564,2.441-2.488,6.539-2.459,7.724.318,13.111-6.088,25.559-7.827,38.557-1.314,9.816-2.046,11.792-4.37,22.362-.9,4.082-2.146,9.9-4.422,21.6-2.445,12.565-6.492,37.6-10.726,70.169q.968,5.211,1.933,10.424a39.567,39.567,0,0,0,8.441,4.5c6,2.307,7.427,1.116,17.937,2.827,10.749,1.752,17.321,4.326,21.737,6.416,3.412,1.613,13.693,6.806,31.015,25.824,12.8,14.048,19.979,25.232,25.5,29.852-.532,7.232,2.021,13.538,9.974,18.144l-36.865,30.3c-12.807,6.19-20.213,18.463-30.684,27.278-8.9,10.555-17.082,21.674-25.577,32.545l-136.2,7.957,125.672,8.142c-2.668,4.631-5.227,9.323-7.747,14.037a181.954,181.954,0,0,0-11.09,22.007l-177.192,8.819,170.565,8.328c-1.721,4.594-4.06,11.184-6.708,19.642-2.929,9.345-4.059,14.266-1.582,16.747,2.753,2.757,10.073,2.607,15.934,2.488,1.6-.033,5.586-.2,7.825,2.35a4.861,4.861,0,0,1,.306.395q-123.965,6.859-247.928,13.723l249.531,4.573a71.808,71.808,0,0,0,4.745,15.25,74.077,74.077,0,0,0,15.944,22.415l-168.919,8.043,192.557,8.024c34.367,15,69.128-.314,75.675-3.385a71.907,71.907,0,0,0,24.055-17.06c8.682-9.582,12.571-19.541,16.476-29.546a142.565,142.565,0,0,0,7.362-25.774q4.03-.915,8.059-1.828,79.474.237,158.952.477,57.181-2.195,114.367-4.384a68.249,68.249,0,0,0-2.268,17.882q-66.142,3.67-132.288,7.338l134.325,8.489a63.486,63.486,0,0,0,2.363,7.326,64.539,64.539,0,0,0,13.856,21.452l-97.712,6.373,118.965,8.54a94.73,94.73,0,0,0,20.351,7.108c7.613,1.713,33.061,7.044,60.3-6.106,27.274-13.166,38.875-36.426,42.495-43.962,18.424-38.351,4.772-75.439,1.98-82.594,6.182-1.436,12.553-1.173,18.806-2.79C2056.688,697.767,2058.27,693.857,2054.335,685.746ZM1972.822,421.2c2.35-12.088,5.008-24.114,7.547-36.165.506-2.4,1.128-5,4.386-4.232,3,.707,1.621,2.944,1.124,4.756-5.208,18.993-6.991,38.824-14.771,57.346C1968.88,435.373,1971.438,428.319,1972.822,421.2Zm-83.279,7.285c2.778,1.972,2.889,4.629,1.935,7.556-2.995.436-6.814,4.9-8.7-.635C1880.905,429.913,1885.575,429.161,1889.543,428.483Zm-342.209,65.564c4.067-3.228,8.984-2.767,13.7-3.152l14.552.466c4.237.489,8.655.91,13.24,1.239s9.017.544,13.281.664q82.425,3.673,164.849,7.338c1.594.072,3.192.148,4.784.113,3.562-.08,7.082,1.21,7.059,4.813-.033,5.473-4.918,2.665-7.289,2.578-37.056-1.327-74.1-2.924-111.148-4.52q-56.731-2.444-113.461-5C1545.74,496.951,1545.446,495.4,1547.334,494.047Zm-22.925,37.371-18.437-20.673c-3.207-3.593-19.9-22.3-23.106-25.889,16.041-.033,33.828.051,51.528.094-4.988.66-5.995,4.477-6.819,8.438-.715,6.568,3.624,10.8,6.944,15.613,4,5.812,4.638,9.637,3.794,12.926C1536.887,527.469,1529.321,530.189,1524.409,531.418ZM1541.138,762.6c-3.469,13.226-12.927,20.8-15.752,22.9a44.394,44.394,0,0,1-30.582,8.232c-19.015-2.049-29.889-16.088-31.609-19.494a31.853,31.853,0,0,1-3.016-9.986,27.211,27.211,0,0,1,.649-9.171l14.705-.053a19.847,19.847,0,0,0,1.13,8.125,20.711,20.711,0,0,0,7.121,9.366,23.147,23.147,0,0,0,11.473,4.766,26.37,26.37,0,0,0,9.549-.528c2.12-.522,12.353-3.2,17.838-13.076a26.022,26.022,0,0,0,3.108-10.052l16.667-.548A39.42,39.42,0,0,1,1541.138,762.6Zm116.849-79.323c-6.79,16.386-18.413,27.8-20.135,26.754-2.819-1.711,25.339-34.119,17.1-68.292-.836-3.47-4.91-18.773-18.729-30.14-8.512-7-19.363-11.336-32.286-12.507-36.916-3.347-70.507,7.84-102.841,24.19-1.994,1.007-3.681,3.082-6.4,2.048,6.683-7.552,20.8-15.771,37.537-22.4,20.431-8.1,41.271-13.758,63.516-13.678,26.818.1,47.435,10.814,58.893,27.728C1673.085,644.213,1660.569,677.05,1657.987,683.277Zm145.173-71.106c-12.395,35.323-18.073,53.405-24.434,60.729-2.582,2.975-8.187,9.849-6,15.72a5.952,5.952,0,0,0,2.811,2.862c-16.887.008-33.765-.343-50.616-1.669-21.685-1.705-37.479-21.051-36.9-42.721.429-16.071,6.71-30.407,16.826-42.415,17.819-21.15,37.365-39.9,66.643-44.845,9.767-1.65,16.443-9.674,18.876-19.73,2.336-9.662,4.362-19.438,5.785-29.271a53.082,53.082,0,0,0,.588-7.2l25.5,13.46a11.761,11.761,0,0,1,5.5,14.625c-3.8,9.867-8.345,22.559-12.857,37.468C1807.272,594.339,1809.655,593.655,1803.16,612.171Zm64.727,51.339a7.554,7.554,0,0,0-3.513-4.088c-5.586-2.938-16.635.224-22.627,4.236-.711.477-1.36.951-1.985,1.4a11.618,11.618,0,0,1-15.276-1.276l-.119-.132c-7.792-8.6,10.27-37.562,34.1-87.266a223.7,223.7,0,0,0,17.255-47.939c6.089-26.314,2.513-33.924,1.284-36.249-6.393-12.09-21.377-17.571-40.144-24.437-11.133-4.074-14.648-3.912-23.8-8.8-10.245-5.469-19.713-10.5-22.773-20.275-4.077-13.039,5.877-26.1,9.089-30.316,11.56-15.171,32.585-24.878,39.563-19.1,5.52,4.569-1.22,15.948,7.225,28.143a28.169,28.169,0,0,0,8.242,7.87c3.513,2.124,6.934,3.026,11.552,3.721a98.5,98.5,0,0,0,13.009,1.031,8.676,8.676,0,0,0-.2,6.646c2.137,6.915,7.751,6.523,12.914,2.048,1.467.24,4.119.228,4.232.758,4.688,22.025,12.279,43.5,11.981,66.467-.557,42.737-10.889,83.426-25.119,123.355A237.661,237.661,0,0,1,1867.887,663.51Zm107.649,118.772c-12.235,10.085-26.16,16.554-42.829,10.714-14-4.9-21.881-15.679-22.017-31.551-.084-9.8,3.83-16.864,6.145-20.981,1.665-2.962,12.112-20.862,33.869-26.035,6.665-1.586,17.908-4.259,28.377,2.114,11.667,7.1,14.356,20.5,14.732,22.84C1996.622,756.892,1988.717,771.422,1975.536,782.282Zm-106.624-47.2c15.344-41.155,41.517-66.017,81.891-73.5,26.281-4.873,49.26,2.654,65.438,25.129C1951.128,657.472,1920.468,666.972,1868.912,735.084Z" transform="translate(-1167.718 -209.904)" fill="#201e1f"/>
          </g>
          <g id="Group_3877" data-name="Group 3877" transform="translate(268.856 138.465)">
            <path id="Path_4995" data-name="Path 4995" d="M1384.1,323.9l-39.641-.641a16.229,16.229,0,0,0-6.052.9,8.4,8.4,0,0,0-3.986,3.1,14.523,14.523,0,0,0-2.172,5.576l-7.543,38.589-26.113,2.531,25.169,2.289-2.91,14.886-17.133,2.391q8.215,1.075,16.429,2.149a7.282,7.282,0,0,0,1.222,4.875,6.793,6.793,0,0,0,5.619,2.508,9.6,9.6,0,0,0,6.5-2.287q2.813-2.342,3.78-7.268l5.053-25.86,27.691.45a10.013,10.013,0,0,0,6.032-1.512,6.629,6.629,0,0,0,2.775-4.306,4.708,4.708,0,0,0-1.045-4.394q-1.578-1.664-5.428-1.726l-27.691-.45,3.927-20.075,33.126.536a10.275,10.275,0,0,0,6.3-1.59,6.935,6.935,0,0,0,2.827-4.438,4.767,4.767,0,0,0-1.09-4.448Q1388.114,323.97,1384.1,323.9Z" transform="translate(-1298.588 -323.26)" fill="#fff"/>
            <path id="Path_4996" data-name="Path 4996" d="M1414.416,331.722a22.076,22.076,0,0,0-10-5.8,58.818,58.818,0,0,0-14.372-1.736l-21.914-.355q-5.436-.09-8.322,2.174t-3.889,7.4l-11.254,57.553a22.074,22.074,0,0,0-.5,6.194,4.858,4.858,0,0,0,2.307,3.745q2.068,1.347,6.654,1.424l21.914.353a70.656,70.656,0,0,0,10.416-.53,39.342,39.342,0,0,0,8.99-2.27,36.57,36.57,0,0,0,8.2-4.433,43.18,43.18,0,0,0,8.6-8.265,45.565,45.565,0,0,0,6.079-10.455,65.939,65.939,0,0,0,3.823-12.883Q1425.331,342.427,1414.416,331.722Zm-10.294,31.734q-3.223,16.49-12.982,23.1a16.847,16.847,0,0,1-4.887,2.336,23.859,23.859,0,0,1-5.136.992q-2.422.176-6.611.107l-12.741-.206,10.414-53.268,11.1.179a44.536,44.536,0,0,1,12.829,1.791q5.125,1.67,7.706,7.509T1404.122,363.455Z" transform="translate(-1250.598 -322.665)" fill="#fff"/>
          </g>
        </g>
        <g id="Group_3883" data-name="Group 3883" transform="translate(0 717.77)">
          <g id="Group_3879" data-name="Group 3879">
            <path id="Path_4997" data-name="Path 4997" d="M1282.9,652.345q-2.124-2.222-7.113-2.231l-35.9-.047,4.168-27.313,42.949.057q5.211.006,8.1-2.287a9.258,9.258,0,0,0,3.461-6.077,6.774,6.774,0,0,0-1.617-6.013q-2.181-2.3-7.393-2.3l-51.393-.07a20.007,20.007,0,0,0-7.8,1.339,10.729,10.729,0,0,0-5.023,4.291,13.974,13.974,0,0,0-.684,1.27q-11.467.943-23.1,1.806-21.1,1.553-41.689,2.751,18.736,1.615,37.708,3.156,12.4,1.007,24.7,1.956l-2.714,17.768c-.184-.031-.355-.074-.544-.1q-19.2,1.02-38.742,1.929-30.548,1.418-60.364,2.482,27.148,1.735,54.636,3.4,21.817,1.319,43.443,2.566l-3.025,19.819q-14.894.77-29.972,1.479-30.55,1.418-60.364,2.482,27.149,1.735,54.634,3.4c11.474.695,22.874,1.36,34.267,2.024l-2.664,17.456c-4.688.483-9.362.976-14.105,1.428q-16.958,1.614-33.511,2.87,15.053,1.563,30.3,3.049c5.526.538,11.013,1.05,16.508,1.568a9.5,9.5,0,0,0,1.72,5.121,8.8,8.8,0,0,0,7.39,3.289,11.914,11.914,0,0,0,8.314-3.231q3.541-3.236,4.565-9.939l5.372-35.182,35.9.048a12.361,12.361,0,0,0,7.747-2.176,8.815,8.815,0,0,0,3.4-5.9A6.69,6.69,0,0,0,1282.9,652.345Z" transform="translate(-1119.908 -604.385)" fill="#ed1c24"/>
            <path id="Path_4998" data-name="Path 4998" d="M1280.28,625.445q-1.2-5.171-2-8.269a26.1,26.1,0,0,0-2.274-5.8,11.691,11.691,0,0,0-4.247-4.413,13.907,13.907,0,0,0-7.338-1.721,16.708,16.708,0,0,0-7.786,1.7,17.86,17.86,0,0,0-5.6,4.474,44.231,44.231,0,0,0-4.585,6.952q-2.293,4.185-3.922,7.172l-38.117,69.3q-2.323,4.15-3.413,6.477a16.544,16.544,0,0,0-1.423,4.518,7.914,7.914,0,0,0,2.12,6.777,8.813,8.813,0,0,0,6.815,3q4.844,0,7.4-2.8t6.794-10.81l7.227-13.684,43.757.057,3.094,13.407q.647,2.48,1.588,5.719a18.869,18.869,0,0,0,1.944,4.813,7.186,7.186,0,0,0,2.7,2.479,8.945,8.945,0,0,0,4.267.917,11.937,11.937,0,0,0,8-3.086,11.257,11.257,0,0,0,4.158-6.806q.546-3.565-1.557-11.439Zm-42.145,46.647,22.657-44.048,9.5,44.091Z" transform="translate(-1036.021 -605.246)" fill="#ed1c24"/>
            <path id="Path_4999" data-name="Path 4999" d="M1338.9,614.277a29.909,29.909,0,0,0-11.011-6.5,50.373,50.373,0,0,0-16.772-2.463,62.237,62.237,0,0,0-22.144,3.652,37.609,37.609,0,0,0-15.628,10.5,30.61,30.61,0,0,0-7.238,15.652q-1.415,9.254,2.225,15.484a25.174,25.174,0,0,0,10.906,9.849,88.9,88.9,0,0,0,18.457,6.327,130.634,130.634,0,0,1,13.271,3.733,17.271,17.271,0,0,1,7.669,5.074q2.758,3.316,1.948,8.634-1.023,6.7-7.764,11.174t-16.43,4.458q-7.048-.009-11.039-2.235a14.4,14.4,0,0,1-5.857-5.656,36.507,36.507,0,0,1-3.139-8.528,14.229,14.229,0,0,0-3.085-6.488,7.2,7.2,0,0,0-5.5-2.192,10.883,10.883,0,0,0-7.439,2.794,11.011,11.011,0,0,0-3.782,6.734,23.376,23.376,0,0,0,2.461,13.955,27.971,27.971,0,0,0,10.176,11.488q9.441,5.984,25.371,6.005A60.3,60.3,0,0,0,1318.2,711.4a41.343,41.343,0,0,0,16.565-12.073,36,36,0,0,0,7.688-17.4q1.232-8.083-.816-13.66a20.559,20.559,0,0,0-6.668-9.224,41.78,41.78,0,0,0-11.609-6.209,145.2,145.2,0,0,0-15.77-4.682q-6.991-1.834-10-2.781a27.851,27.851,0,0,1-5.843-2.632,11.9,11.9,0,0,1-4.234-4.012,8.057,8.057,0,0,1-.915-5.539q.79-5.171,6.525-8.842t14.181-3.661q9.1.012,12.7,3.4a22.463,22.463,0,0,1,5.607,9.442,20.559,20.559,0,0,0,3.295,6.089q1.662,1.859,5.408,1.861a10.291,10.291,0,0,0,7.336-3.086,12.046,12.046,0,0,0,3.815-6.952,18.091,18.091,0,0,0-.877-8.672A21.924,21.924,0,0,0,1338.9,614.277Z" transform="translate(-976.088 -605.174)" fill="#ed1c24"/>
            <path id="Path_5000" data-name="Path 5000" d="M1397.57,608.819q-2.373-2.478-8.027-2.488l-69.3-.09a13.868,13.868,0,0,0-8.553,2.393,9.688,9.688,0,0,0-3.829,6.553,7.233,7.233,0,0,0,1.732,6.449q2.346,2.44,7.926,2.449l23.786.031-11.846,77.573q-1.01,6.629,1.537,9.908a8.8,8.8,0,0,0,7.392,3.289,11.79,11.79,0,0,0,8.277-3.229q3.5-3.239,4.526-9.939l11.845-77.573,23.786.031q5.58.006,8.743-2.426a9.69,9.69,0,0,0,3.771-6.442A7.277,7.277,0,0,0,1397.57,608.819Z" transform="translate(-921.87 -604.197)" fill="#ed1c24"/>
          </g>
          <g id="Group_3882" data-name="Group 3882" transform="translate(520.999 4.746)">
            <g id="Group_3880" data-name="Group 3880">
              <path id="Path_5001" data-name="Path 5001" d="M1400.04,608.272l27.058.037a70.1,70.1,0,0,1,17.816,1.962,27.723,27.723,0,0,1,12.589,7.3q13.934,13.621,9.7,41.365a86.974,86.974,0,0,1-4.162,16.716A57.982,57.982,0,0,1,1456,689.28a52.969,52.969,0,0,1-10.257,10.843,43.555,43.555,0,0,1-9.921,5.886,46.1,46.1,0,0,1-11,3.106,82.928,82.928,0,0,1-12.83.887l-27.058-.037q-5.664-.007-8.272-1.709a6.472,6.472,0,0,1-3.008-4.793,29.62,29.62,0,0,1,.347-8.01l11.387-74.572q1.014-6.662,4.477-9.639T1400.04,608.272Zm5.553,16.312L1395.055,693.6l15.732.023q5.172.006,8.152-.269a28.016,28.016,0,0,0,6.3-1.378,20.1,20.1,0,0,0,5.928-3.115q11.754-8.724,15.014-30.093,2.3-15.05-1.137-22.551t-9.836-9.551A52.773,52.773,0,0,0,1419.3,624.6Z" transform="translate(-1373.512 -606.801)" fill="#2e333d"/>
              <path id="Path_5002" data-name="Path 5002" d="M1504.7,624.3l-46.776-.061-3.811,24.971,43.07.058q4.755.006,6.774,2.126a6.276,6.276,0,0,1,1.489,5.586,8.794,8.794,0,0,1-3.169,5.65q-2.641,2.182-7.468,2.178l-43.07-.056-4.415,28.926,48.385.064q4.893.006,7.032,2.266a6.767,6.767,0,0,1,1.565,6,8.959,8.959,0,0,1-3.375,5.859,12.054,12.054,0,0,1-7.722,2.245l-56.426-.074q-6.784-.009-9.3-3t-1.5-9.647l11.673-76.443a19.039,19.039,0,0,1,2.435-7.248,10.2,10.2,0,0,1,4.786-4.088,19.076,19.076,0,0,1,7.431-1.272l54.816.072q4.967.006,7.044,2.194a6.44,6.44,0,0,1,1.539,5.726,8.824,8.824,0,0,1-3.295,5.789Q1509.668,624.307,1504.7,624.3Z" transform="translate(-1318.494 -606.728)" fill="#2e333d"/>
              <path id="Path_5003" data-name="Path 5003" d="M1505.694,620.055l-11.3,74.019,42.093.056q5.035.006,7.354,2.438a6.87,6.87,0,0,1,1.76,6.106,9.122,9.122,0,0,1-3.583,6.065,12.933,12.933,0,0,1-8.116,2.315l-50.132-.066q-6.786-.01-9.3-3t-1.5-9.645l11.957-78.317q.955-6.246,4.262-9.36a11.119,11.119,0,0,1,7.922-3.114,8.537,8.537,0,0,1,7.116,3.1Q1506.657,613.746,1505.694,620.055Z" transform="translate(-1268.953 -607.556)" fill="#2e333d"/>
              <path id="Path_5004" data-name="Path 5004" d="M1516.235,700.2l12.231-80.121q.956-6.243,4.3-9.358a11.146,11.146,0,0,1,7.888-3.113,8.523,8.523,0,0,1,7.115,3.1q2.432,3.091,1.467,9.4L1537,700.234q-.965,6.314-4.341,9.429a11.46,11.46,0,0,1-8.064,3.112,8.184,8.184,0,0,1-6.894-3.166Q1515.279,706.448,1516.235,700.2Z" transform="translate(-1223.313 -607.495)" fill="#2e333d"/>
              <path id="Path_5005" data-name="Path 5005" d="M1562.54,621.178l12.8,68.219,33.77-68.645q2.644-5.405,3.877-7.521a12.436,12.436,0,0,1,3.588-3.809,9.96,9.96,0,0,1,5.991-1.695,8.655,8.655,0,0,1,4.729,1.325,8.053,8.053,0,0,1,3.653,7.916,15.553,15.553,0,0,1-.922,3.293,35,35,0,0,1-1.58,3.468q-.888,1.7-1.793,3.5l-34.968,66.424q-1.907,3.81-3.761,7.244a37.191,37.191,0,0,1-4,6.031,17.15,17.15,0,0,1-5.3,4.261,15.506,15.506,0,0,1-7.351,1.652,12.9,12.9,0,0,1-6.849-1.637,10.829,10.829,0,0,1-4.029-4.306,27.012,27.012,0,0,1-2.184-6.075q-.807-3.4-1.555-7.217l-14.337-65.933q-.357-1.8-.756-3.54a24.6,24.6,0,0,1-.546-3.745,15.5,15.5,0,0,1,.065-3.4,10.735,10.735,0,0,1,3.852-6.445,11.184,11.184,0,0,1,7.645-2.9q5.312,0,7.026,3.234T1562.54,621.178Z" transform="translate(-1196.963 -607.469)" fill="#2e333d"/>
              <path id="Path_5006" data-name="Path 5006" d="M1665.85,624.508l-46.773-.062-3.814,24.971,43.07.06q4.757,0,6.776,2.125a6.281,6.281,0,0,1,1.487,5.586,8.783,8.783,0,0,1-3.17,5.649q-2.64,2.182-7.465,2.18l-43.07-.058-4.417,28.926,48.385.064q4.893.006,7.032,2.266a6.774,6.774,0,0,1,1.567,6,8.974,8.974,0,0,1-3.377,5.859,12.053,12.053,0,0,1-7.722,2.245l-56.424-.074q-6.785-.009-9.3-3t-1.5-9.647l11.671-76.443a19.08,19.08,0,0,1,2.434-7.248,10.207,10.207,0,0,1,4.787-4.088,19.077,19.077,0,0,1,7.43-1.272l54.818.072q4.964.006,7.044,2.194a6.451,6.451,0,0,1,1.539,5.725,8.818,8.818,0,0,1-3.3,5.789Q1670.817,624.518,1665.85,624.508Z" transform="translate(-1148.579 -606.506)" fill="#2e333d"/>
              <path id="Path_5007" data-name="Path 5007" d="M1667.142,666.832l-7.272-.008-4.989,32.673q-.985,6.453-4.318,9.5a11.337,11.337,0,0,1-7.946,3.042q-4.968-.006-7.2-3.2t-1.3-9.366l11.95-78.247q1.013-6.662,4.476-9.641t10.173-2.969l33.772.045a101.689,101.689,0,0,1,11.868.6,27.034,27.034,0,0,1,8.583,2.4,21.048,21.048,0,0,1,7.652,5.771,20.819,20.819,0,0,1,4.3,8.713,27.491,27.491,0,0,1,.323,10.512q-1.742,11.38-9.243,18.165t-21.086,9.619a30.375,30.375,0,0,1,9.245,8.614,70.849,70.849,0,0,1,7.135,12.119,75.357,75.357,0,0,1,4.384,11.591q1.415,5.171,1.117,7.114a8.376,8.376,0,0,1-1.9,3.988,11.268,11.268,0,0,1-4.008,3.117,12.286,12.286,0,0,1-5.348,1.136,9.01,9.01,0,0,1-5.625-1.639,12.523,12.523,0,0,1-3.46-4.131q-1.334-2.5-3.527-7.357l-6.223-13.748a61.8,61.8,0,0,0-6.247-11.525,15.9,15.9,0,0,0-6.342-5.419A23.062,23.062,0,0,0,1667.142,666.832Zm18.41-42.714-19.157-.025-4.269,27.958,18.6.023a54.9,54.9,0,0,0,12.779-1.268,17.8,17.8,0,0,0,8.464-4.361,14.516,14.516,0,0,0,3.99-8.493,11.921,11.921,0,0,0-1.029-7.46,10.531,10.531,0,0,0-5.278-4.828Q1696.252,624.133,1685.552,624.118Z" transform="translate(-1099.034 -606.441)" fill="#2e333d"/>
              <path id="Path_5008" data-name="Path 5008" d="M1702.744,700.46l4.926-32.256-19.155-38.534a67.089,67.089,0,0,1-3.411-8.123,11.384,11.384,0,0,1-.589-5.066,9.617,9.617,0,0,1,3.694-6.1,11.074,11.074,0,0,1,7.208-2.556q4.265.006,6.1,2.4a58.051,58.051,0,0,1,5.151,9.547l14.448,30.9,24.078-30.844q2.186-2.842,3.667-4.785a37.9,37.9,0,0,1,3.179-3.638,13.034,13.034,0,0,1,3.579-2.6,10.145,10.145,0,0,1,4.4-.894,7.8,7.8,0,0,1,6.151,2.537,6.909,6.909,0,0,1,1.728,5.867,13.9,13.9,0,0,1-2.155,5.409,87.671,87.671,0,0,1-5.689,7.486l-31.625,39.019-4.925,32.258q-.963,6.311-4.373,9.428a11.416,11.416,0,0,1-7.96,3.114,8.349,8.349,0,0,1-7.01-3.1Q1701.769,706.842,1702.744,700.46Z" transform="translate(-1045.688 -607.271)" fill="#2e333d"/>
            </g>
            <g id="Group_3881" data-name="Group 3881">
              <path id="Path_5009" data-name="Path 5009" d="M1400.04,608.272l27.058.037a70.1,70.1,0,0,1,17.816,1.962,27.723,27.723,0,0,1,12.589,7.3q13.934,13.621,9.7,41.365a86.974,86.974,0,0,1-4.162,16.716A57.982,57.982,0,0,1,1456,689.28a52.969,52.969,0,0,1-10.257,10.843,43.555,43.555,0,0,1-9.921,5.886,46.1,46.1,0,0,1-11,3.106,82.928,82.928,0,0,1-12.83.887l-27.058-.037q-5.664-.007-8.272-1.709a6.472,6.472,0,0,1-3.008-4.793,29.62,29.62,0,0,1,.347-8.01l11.387-74.572q1.014-6.662,4.477-9.639T1400.04,608.272Zm5.553,16.312L1395.055,693.6l15.732.023q5.172.006,8.152-.269a28.016,28.016,0,0,0,6.3-1.378,20.1,20.1,0,0,0,5.928-3.115q11.754-8.724,15.014-30.093,2.3-15.05-1.137-22.551t-9.836-9.551A52.773,52.773,0,0,0,1419.3,624.6Z" transform="translate(-1373.512 -606.801)" fill="#201e1f"/>
              <path id="Path_5010" data-name="Path 5010" d="M1504.7,624.3l-46.776-.061-3.811,24.971,43.07.058q4.755.006,6.774,2.126a6.276,6.276,0,0,1,1.489,5.586,8.794,8.794,0,0,1-3.169,5.65q-2.641,2.182-7.468,2.178l-43.07-.056-4.415,28.926,48.385.064q4.893.006,7.032,2.266a6.767,6.767,0,0,1,1.565,6,8.959,8.959,0,0,1-3.375,5.859,12.054,12.054,0,0,1-7.722,2.245l-56.426-.074q-6.784-.009-9.3-3t-1.5-9.647l11.673-76.443a19.039,19.039,0,0,1,2.435-7.248,10.2,10.2,0,0,1,4.786-4.088,19.076,19.076,0,0,1,7.431-1.272l54.816.072q4.967.006,7.044,2.194a6.44,6.44,0,0,1,1.539,5.726,8.824,8.824,0,0,1-3.295,5.789Q1509.668,624.307,1504.7,624.3Z" transform="translate(-1318.494 -606.728)" fill="#201e1f"/>
              <path id="Path_5011" data-name="Path 5011" d="M1505.694,620.055l-11.3,74.019,42.093.056q5.035.006,7.354,2.438a6.87,6.87,0,0,1,1.76,6.106,9.122,9.122,0,0,1-3.583,6.065,12.933,12.933,0,0,1-8.116,2.315l-50.132-.066q-6.786-.01-9.3-3t-1.5-9.645l11.957-78.317q.955-6.246,4.262-9.36a11.119,11.119,0,0,1,7.922-3.114,8.537,8.537,0,0,1,7.116,3.1Q1506.657,613.746,1505.694,620.055Z" transform="translate(-1268.953 -607.556)" fill="#201e1f"/>
              <path id="Path_5012" data-name="Path 5012" d="M1516.235,700.2l12.231-80.121q.956-6.243,4.3-9.358a11.146,11.146,0,0,1,7.888-3.113,8.523,8.523,0,0,1,7.115,3.1q2.432,3.091,1.467,9.4L1537,700.234q-.965,6.314-4.341,9.429a11.46,11.46,0,0,1-8.064,3.112,8.184,8.184,0,0,1-6.894-3.166Q1515.279,706.448,1516.235,700.2Z" transform="translate(-1223.313 -607.495)" fill="#201e1f"/>
              <path id="Path_5013" data-name="Path 5013" d="M1562.54,621.178l12.8,68.219,33.77-68.645q2.644-5.405,3.877-7.521a12.436,12.436,0,0,1,3.588-3.809,9.96,9.96,0,0,1,5.991-1.695,8.655,8.655,0,0,1,4.729,1.325,8.053,8.053,0,0,1,3.653,7.916,15.553,15.553,0,0,1-.922,3.293,35,35,0,0,1-1.58,3.468q-.888,1.7-1.793,3.5l-34.968,66.424q-1.907,3.81-3.761,7.244a37.191,37.191,0,0,1-4,6.031,17.15,17.15,0,0,1-5.3,4.261,15.506,15.506,0,0,1-7.351,1.652,12.9,12.9,0,0,1-6.849-1.637,10.829,10.829,0,0,1-4.029-4.306,27.012,27.012,0,0,1-2.184-6.075q-.807-3.4-1.555-7.217l-14.337-65.933q-.357-1.8-.756-3.54a24.6,24.6,0,0,1-.546-3.745,15.5,15.5,0,0,1,.065-3.4,10.735,10.735,0,0,1,3.852-6.445,11.184,11.184,0,0,1,7.645-2.9q5.312,0,7.026,3.234T1562.54,621.178Z" transform="translate(-1196.963 -607.469)" fill="#201e1f"/>
              <path id="Path_5014" data-name="Path 5014" d="M1665.85,624.508l-46.773-.062-3.814,24.971,43.07.06q4.757,0,6.776,2.125a6.281,6.281,0,0,1,1.487,5.586,8.783,8.783,0,0,1-3.17,5.649q-2.64,2.182-7.465,2.18l-43.07-.058-4.417,28.926,48.385.064q4.893.006,7.032,2.266a6.774,6.774,0,0,1,1.567,6,8.974,8.974,0,0,1-3.377,5.859,12.053,12.053,0,0,1-7.722,2.245l-56.424-.074q-6.785-.009-9.3-3t-1.5-9.647l11.671-76.443a19.08,19.08,0,0,1,2.434-7.248,10.207,10.207,0,0,1,4.787-4.088,19.077,19.077,0,0,1,7.43-1.272l54.818.072q4.964.006,7.044,2.194a6.451,6.451,0,0,1,1.539,5.725,8.818,8.818,0,0,1-3.3,5.789Q1670.817,624.518,1665.85,624.508Z" transform="translate(-1148.579 -606.506)" fill="#201e1f"/>
              <path id="Path_5015" data-name="Path 5015" d="M1667.142,666.832l-7.272-.008-4.989,32.673q-.985,6.453-4.318,9.5a11.337,11.337,0,0,1-7.946,3.042q-4.968-.006-7.2-3.2t-1.3-9.366l11.95-78.247q1.013-6.662,4.476-9.641t10.173-2.969l33.772.045a101.689,101.689,0,0,1,11.868.6,27.034,27.034,0,0,1,8.583,2.4,21.048,21.048,0,0,1,7.652,5.771,20.819,20.819,0,0,1,4.3,8.713,27.491,27.491,0,0,1,.323,10.512q-1.742,11.38-9.243,18.165t-21.086,9.619a30.375,30.375,0,0,1,9.245,8.614,70.849,70.849,0,0,1,7.135,12.119,75.357,75.357,0,0,1,4.384,11.591q1.415,5.171,1.117,7.114a8.376,8.376,0,0,1-1.9,3.988,11.268,11.268,0,0,1-4.008,3.117,12.286,12.286,0,0,1-5.348,1.136,9.01,9.01,0,0,1-5.625-1.639,12.523,12.523,0,0,1-3.46-4.131q-1.334-2.5-3.527-7.357l-6.223-13.748a61.8,61.8,0,0,0-6.247-11.525,15.9,15.9,0,0,0-6.342-5.419A23.062,23.062,0,0,0,1667.142,666.832Zm18.41-42.714-19.157-.025-4.269,27.958,18.6.023a54.9,54.9,0,0,0,12.779-1.268,17.8,17.8,0,0,0,8.464-4.361,14.516,14.516,0,0,0,3.99-8.493,11.921,11.921,0,0,0-1.029-7.46,10.531,10.531,0,0,0-5.278-4.828Q1696.252,624.133,1685.552,624.118Z" transform="translate(-1099.034 -606.441)" fill="#201e1f"/>
              <path id="Path_5016" data-name="Path 5016" d="M1702.744,700.46l4.926-32.256-19.155-38.534a67.089,67.089,0,0,1-3.411-8.123,11.384,11.384,0,0,1-.589-5.066,9.617,9.617,0,0,1,3.694-6.1,11.074,11.074,0,0,1,7.208-2.556q4.265.006,6.1,2.4a58.051,58.051,0,0,1,5.151,9.547l14.448,30.9,24.078-30.844q2.186-2.842,3.667-4.785a37.9,37.9,0,0,1,3.179-3.638,13.034,13.034,0,0,1,3.579-2.6,10.145,10.145,0,0,1,4.4-.894,7.8,7.8,0,0,1,6.151,2.537,6.909,6.909,0,0,1,1.728,5.867,13.9,13.9,0,0,1-2.155,5.409,87.671,87.671,0,0,1-5.689,7.486l-31.625,39.019-4.925,32.258q-.963,6.311-4.373,9.428a11.416,11.416,0,0,1-7.96,3.114,8.349,8.349,0,0,1-7.01-3.1Q1701.769,706.842,1702.744,700.46Z" transform="translate(-1045.688 -607.271)" fill="#201e1f"/>
            </g>
          </g>
        </g>
      </g>
    </g>
  </g>
</svg>
